<svg xmlns="http://www.w3.org/2000/svg" xmlns:xlink="http://www.w3.org/1999/xlink" viewBox="0 0 60 59" version="1.1" x="0px" y="0px"><title>49 -Automatic Gear Shift- (Outline)</title><desc>Created with Sketch.</desc><g stroke="none" stroke-width="1" fill="none" fill-rule="evenodd" stroke-linecap="round" stroke-linejoin="round"><g transform="translate(-1080.000000, -823.000000)" stroke="#000000" stroke-width="2"><g transform="translate(1081.000000, 824.000000)"><path d="M26,23 L26,33 C26,34.657 27.343,36 29,36 C30.657,36 32,34.657 32,33 L32,23 L26,23 Z"></path><path d="M32,23 L32,23 C35.493,20.448 38,13.794 38,8.571 C38,1.944 33.971,0 29,0 C24.029,0 20,1.944 20,8.571 C20,13.794 22.507,20.448 26,23 L32,23 Z"></path><path d="M24,8.5713 C24,4.6843 25.612,4.0003 29,4.0003"></path><path d="M32,27.8091 L32,33.0001 C32,34.6571 30.657,36.0001 29,36.0001 C27.343,36.0001 26,34.6571 26,33.0001 L26,27.8091 C24.208,28.8471 23,30.7801 23,33.0001 L23,47.0001 C23,50.3131 25.687,53.0001 29,53.0001 C32.313,53.0001 35,50.3131 35,47.0001 L35,33.0001 C35,30.7801 33.792,28.8471 32,27.8091 Z"></path><path d="M17,35 L14,35 C12.896,35 12,34.104 12,33 C12,31.896 12.896,31 14,31 L17,31 C18.104,31 19,31.896 19,33 C19,34.104 18.104,35 17,35 Z"></path><path d="M17,43 L14,43 C12.896,43 12,42.104 12,41 C12,39.896 12.896,39 14,39 L17,39 C18.104,39 19,39.896 19,41 C19,42.104 18.104,43 17,43 Z"></path><path d="M17,51 L14,51 C12.896,51 12,50.104 12,49 C12,47.896 12.896,47 14,47 L17,47 C18.104,47 19,47.896 19,49 C19,50.104 18.104,51 17,51 Z"></path><path d="M37.9824,8.1123 C37.9864,8.2673 38.0004,8.4113 38.0004,8.5713 C38.0004,13.7943 35.4934,20.4483 32.0004,23.0003 L26.0004,23.0003 C22.5064,20.4483 20.0004,13.7943 20.0004,8.5713 C20.0004,8.4113 20.0134,8.2673 20.0174,8.1123 C8.7774,9.2373 0.0004,18.7243 0.0004,30.2613 L0.0004,41.4683 C0.0004,50.0463 6.9534,57.0003 15.5314,57.0003 L42.4684,57.0003 C51.0464,57.0003 58.0004,50.0463 58.0004,41.4683 L58.0004,30.2613 C58.0004,18.7243 49.2224,9.2373 37.9824,8.1123 Z"></path></g></g></g></svg>