<svg xmlns="http://www.w3.org/2000/svg" xmlns:xlink="http://www.w3.org/1999/xlink" version="1.1" x="0px" y="0px" viewBox="0 0 100 100" enable-background="new 0 0 100 100" xml:space="preserve"><path d="M46.299,46.752c0.264,0.264,0.609,0.395,0.955,0.395s0.691-0.131,0.955-0.395l16.744-16.745  c0.528-0.527,0.528-1.382,0-1.909l-4.642-4.643c-0.253-0.253-0.596-0.395-0.955-0.395c-0.357,0-0.701,0.142-0.955,0.395  L41.655,40.199c-0.253,0.253-0.396,0.597-0.396,0.955c0,0.358,0.142,0.702,0.396,0.955L46.299,46.752z M59.355,26.318l2.733,2.734  L47.252,43.888l-2.735-2.734L59.355,26.318z M37.802,51.953c0.112,0,0.223-0.014,0.334-0.042l5.604-1.428  c0.723-0.184,1.159-0.919,0.975-1.641c-0.184-0.722-0.917-1.164-1.64-0.975l-3.517,0.896l0.763-3.728  c0.149-0.73-0.321-1.443-1.052-1.594c-0.734-0.148-1.443,0.321-1.594,1.052l-1.195,5.838c-0.094,0.456,0.055,0.927,0.392,1.249  C37.125,51.821,37.459,51.953,37.802,51.953z M88.85,14.508H11.151c-1.24,0-2.25,1.01-2.25,2.25v55.201c0,1.24,1.01,2.25,2.25,2.25  h32.786l-0.497,5.326c-0.022,0.334-0.387,3.257-5.916,3.257c-0.746,0-1.35,0.603-1.35,1.351c0,0.745,0.604,1.35,1.35,1.35h24.953  c0.746,0,1.351-0.604,1.351-1.35c0-0.748-0.604-1.351-1.351-1.351c-5.529,0-5.894-2.923-5.92-3.315l-0.492-5.268h31.887  c0.807,0,3.149-0.554,3.149-2.25V16.758C91.1,15.519,90.091,14.508,88.85,14.508z M88.399,60.259H11.601V17.208h76.799V60.259z"></path></svg>