<svg xmlns="http://www.w3.org/2000/svg" xmlns:xlink="http://www.w3.org/1999/xlink" version="1.1" x="0px" y="0px" viewBox="0 0 100 125" enable-background="new 0 0 100 100" xml:space="preserve"><path d="M100,7.024L92.976,0l-3.696,3.696l-0.554-0.554L86.877,4.99l1.478,1.479l-1.849,1.848l-1.477-1.479l-2.821,2.821  l-4.021-1.895L54.655,31.296c-0.274,0.274-0.198,0.797,0.17,1.164l0.442,0.444c0.131,0.128,0.271,0.232,0.423,0.313  c0.693,0.376,1.577,0.272,2.165-0.313c0.588-0.588,0.69-1.472,0.316-2.167l15.413-15.41l2.015,0.941L11.089,80.778L1.848,96.675  l0.369,0.369L0,99.263L0.737,100l2.219-2.217l0.369,0.368l15.896-9.24l73.939-73.938l-1.479-1.479l1.849-1.848l1.479,1.479  l1.849-1.851l-0.555-0.554L100,7.024z M19.222,87.063l-1.108-1.11l72.089-72.089l1.111,1.111L19.222,87.063z"/><text x="0" y="115" fill="#000000" font-size="5px" font-weight="bold" font-family="'Helvetica Neue', Helvetica, Arial-Unicode, Arial, Sans-serif">Created by Matt Garbarino</text><text x="0" y="120" fill="#000000" font-size="5px" font-weight="bold" font-family="'Helvetica Neue', Helvetica, Arial-Unicode, Arial, Sans-serif">from the Noun Project</text></svg>