<svg xmlns="http://www.w3.org/2000/svg" xmlns:xlink="http://www.w3.org/1999/xlink" version="1.1" x="0px" y="0px" viewBox="0 0 100 125" enable-background="new 0 0 100 100" xml:space="preserve"><path d="M80.303,0H19.697c-2.79,0-5.051,2.261-5.051,5.051v89.899c0,2.789,2.261,5.05,5.051,5.05h60.605  c2.79,0,5.051-2.261,5.051-5.05V5.05C85.354,2.261,83.093,0,80.303,0z M81.986,94.949c0,0.928-0.755,1.683-1.684,1.683H19.697  c-0.929,0-1.684-0.755-1.684-1.683V5.05c0-0.929,0.755-1.684,1.684-1.684h60.605c0.929,0,1.684,0.755,1.684,1.684V94.949z   M77.609,42.087c0-0.372-0.302-0.674-0.673-0.674V20.202H23.063v21.212c-0.371,0-0.673,0.302-0.673,0.674  c0,0.372,0.302,0.673,0.673,0.673v10.438c-0.371,0-0.673,0.301-0.673,0.673s0.302,0.673,0.673,0.673v10.438  c-0.371,0-0.673,0.301-0.673,0.673c0,0.372,0.302,0.673,0.673,0.673v10.438c-0.371,0-0.673,0.302-0.673,0.674  c0,0.372,0.302,0.673,0.673,0.673v12.795h53.873V78.114c0.371,0,0.673-0.301,0.673-0.673c0-0.372-0.302-0.674-0.673-0.674V66.33  c0.371,0,0.673-0.302,0.673-0.673c0-0.372-0.302-0.673-0.673-0.673V54.545c0.371,0,0.673-0.301,0.673-0.673  s-0.302-0.673-0.673-0.673V42.76C77.308,42.76,77.609,42.459,77.609,42.087z M26.048,23.186h47.904v4.132H26.048V23.186z   M24.411,31.649h33.333v9.764H24.411V31.649z M24.411,42.76h33.333v10.438H24.411V42.76z M24.411,54.545h33.333v10.438H24.411  V54.545z M24.411,66.33h33.333v10.438H24.411V66.33z M24.411,89.562V78.114h33.333v11.111c0,0.125,0.044,0.236,0.104,0.337H24.411z   M75.589,89.562H58.987c0.06-0.101,0.104-0.211,0.104-0.337V78.114h16.498V89.562z M75.589,76.767H59.091V66.33h16.498V76.767z   M75.589,64.983H59.091V54.545h16.498V64.983z M75.589,53.198H59.091V42.76h16.498V53.198z M75.589,41.414H59.091v-9.764h16.498  V41.414z M53.367,36.363H29.798c-0.372,0-0.674,0.301-0.674,0.673s0.302,0.673,0.674,0.673h23.569c0.372,0,0.673-0.301,0.673-0.673  S53.739,36.363,53.367,36.363z M53.367,48.148H29.798c-0.372,0-0.674,0.301-0.674,0.673c0,0.372,0.302,0.674,0.674,0.674h23.569  c0.372,0,0.673-0.302,0.673-0.674C54.04,48.449,53.739,48.148,53.367,48.148z M53.367,59.932H29.798  c-0.372,0-0.674,0.302-0.674,0.674c0,0.372,0.302,0.673,0.674,0.673h23.569c0.372,0,0.673-0.301,0.673-0.673  C54.04,60.234,53.739,59.932,53.367,59.932z M53.367,71.717H29.798c-0.372,0-0.674,0.301-0.674,0.673s0.302,0.673,0.674,0.673  h23.569c0.372,0,0.673-0.301,0.673-0.673S53.739,71.717,53.367,71.717z M53.367,83.501H29.798c-0.372,0-0.674,0.301-0.674,0.673  c0,0.372,0.302,0.673,0.674,0.673h23.569c0.372,0,0.673-0.302,0.673-0.673C54.04,83.803,53.739,83.501,53.367,83.501z   M65.763,39.312c0.252,0.252,0.595,0.395,0.952,0.395s0.7-0.142,0.952-0.395l4.329-4.329c0.526-0.526,0.526-1.379,0-1.905  s-1.379-0.526-1.904,0l-3.377,3.376l-1.453-1.453c-0.525-0.526-1.378-0.526-1.904,0s-0.526,1.379,0,1.905L65.763,39.312z   M65.763,51.096c0.252,0.253,0.595,0.395,0.952,0.395s0.7-0.142,0.952-0.395l4.329-4.329c0.526-0.526,0.526-1.379,0-1.904  c-0.526-0.526-1.379-0.526-1.904,0l-3.377,3.376l-1.453-1.453c-0.525-0.526-1.378-0.526-1.904,0s-0.526,1.379,0,1.904L65.763,51.096  z M65.763,74.666c0.252,0.252,0.595,0.395,0.952,0.395s0.7-0.142,0.952-0.395l4.329-4.329c0.526-0.526,0.526-1.379,0-1.905  s-1.379-0.526-1.904,0l-3.377,3.376l-1.453-1.453c-0.525-0.526-1.378-0.526-1.904,0s-0.526,1.379,0,1.905L65.763,74.666z M50,17.88  c2.044,0,5.505-0.424,5.505-2.015V8.458c0-1.591-3.461-2.015-5.505-2.015s-5.505,0.424-5.505,2.015v7.325  c0,0.015,0.007,0.027,0.009,0.041c-0.002,0.015-0.009,0.027-0.009,0.042C44.495,17.456,47.956,17.88,50,17.88z M50,7.576  c2.665,0,4.104,0.591,4.351,0.882C54.104,8.749,52.665,9.339,50,9.339s-4.104-0.591-4.351-0.882C45.896,8.167,47.335,7.576,50,7.576  z M45.628,9.76c1.19,0.538,3.068,0.713,4.372,0.713s3.182-0.175,4.372-0.713v1.137c-0.168,0.278-1.614,0.911-4.372,0.911  s-4.204-0.633-4.372-0.911V9.76z M45.628,12.23c1.19,0.538,3.068,0.712,4.372,0.712s3.182-0.174,4.372-0.712v1.137  c-0.168,0.278-1.614,0.911-4.372,0.911s-4.204-0.633-4.372-0.911V12.23z M45.628,15.783v-1.084c1.19,0.538,3.068,0.712,4.372,0.712  s3.182-0.174,4.372-0.712v1.137c-0.168,0.278-1.614,0.911-4.372,0.911s-4.204-0.633-4.372-0.911c0-0.008-0.005-0.015-0.006-0.023  C45.622,15.802,45.628,15.793,45.628,15.783z"/><text x="0" y="115" fill="#000000" font-size="5px" font-weight="bold" font-family="'Helvetica Neue', Helvetica, Arial-Unicode, Arial, Sans-serif">Created by alvarobueno</text><text x="0" y="120" fill="#000000" font-size="5px" font-weight="bold" font-family="'Helvetica Neue', Helvetica, Arial-Unicode, Arial, Sans-serif">from the Noun Project</text></svg>